<svg xmlns="http://www.w3.org/2000/svg" fill="none" viewBox="0 0 1000 1000" height="1000" width="1000">
<g clip-path="url(#clip0_5679_8365)">
<path fill="#FFFF00" d="M1000 500C833.33 546.02 824.01 589.87 960.71 694.62C790.27 669.63 765.87 705.54 853.56 853.55C705.55 765.86 669.63 790.27 694.63 960.7C589.88 824 546.03 833.33 500.01 999.99C453.99 833.32 410.14 824 305.39 960.7C330.38 790.26 294.47 765.86 146.46 853.55C234.15 705.54 209.74 669.62 39.31 694.62C176.01 589.87 166.68 546.02 0.019989 500C166.69 453.98 176.01 410.13 39.31 305.38C209.75 330.37 234.15 294.46 146.46 146.45C294.47 234.14 330.39 209.73 305.39 39.3C410.13 175.99 453.98 166.67 500 0C546.02 166.67 589.87 175.99 694.62 39.29C669.63 209.73 705.54 234.13 853.55 146.44C765.86 294.45 790.27 330.37 960.7 305.37C824 410.12 833.33 453.97 999.99 499.99L1000 500Z"></path>
<path fill="#99BDFF" d="M260 575.14L344.96 632.72L497.2 500.22L499.61 501.85L433.54 692.76L518.5 750.34L784.8 540.37L705.86 486.87L544.37 614.86L541.96 613.22L609.45 421.53L539.55 374.15L386.49 507.86L384.09 506.23L443.13 308.81L356.36 250L260 575.14Z"></path>
</g>
<defs>
<clipPath id="clip0_5679_8365">
<rect fill="white" height="1000" width="1000"></rect>
</clipPath>
</defs>
</svg>
